<?xml version="1.0" encoding="utf-8"?>
<!-- Generator: Adobe Illustrator 22.0.0, SVG Export Plug-In . SVG Version: 6.00 Build 0)  -->
<svg version="1.1" id="Livello_1" xmlns="http://www.w3.org/2000/svg" xmlns:xlink="http://www.w3.org/1999/xlink" x="0px" y="0px"
	 viewBox="0 0 192.8 192.8" style="enable-background:new 0 0 192.8 192.8;" xml:space="preserve">
<style type="text/css">
	.st0{fill-rule:evenodd;clip-rule:evenodd;fill:#FFFFFF;}
	.st1{fill-rule:evenodd;clip-rule:evenodd;fill:#ED1C24;}
</style>
<g>
	<polygon class="st0" points="0,0 192.8,0 192.8,192.8 0,192.8 0,0 	"/>
	<path class="st1" d="M178.7,78.8v2.7c0,0.3-0.1,0.6-0.1,0.9c-0.7,4.8-3.7,7.8-7.6,9.5V68C175,70.7,178.2,73.8,178.7,78.8
		L178.7,78.8z M171,61.6V48.3c3.7,0,6.7,3,6.7,6.7C177.7,58.6,174.7,61.6,171,61.6L171,61.6z M148.8,128.4c0.7-0.1,1.2-0.2,1.4-0.4
		c0.3-0.2,0.4-0.5,0.4-0.9c0-0.2-0.1-0.4-0.2-0.7c-0.1-0.2-0.3-0.3-0.5-0.4c-0.2-0.1-0.5-0.1-1-0.2v-1.1c0.8,0,1.4,0.1,1.8,0.2
		c0.4,0.2,0.8,0.4,1,0.8c0.3,0.4,0.4,0.8,0.4,1.2c0,0.6-0.2,1.2-0.7,1.6c-0.4,0.5-1,0.7-1.7,0.8c0.3,0.2,0.5,0.3,0.7,0.4
		c0.3,0.4,0.7,0.9,1.2,1.7l1,1.6H151l-0.8-1.3c-0.6-1-1-1.7-1.4-2v-0.1V128.4L148.8,128.4z M171,48.3v13.3c-3.7,0-6.7-3-6.7-6.6
		C164.3,51.3,167.3,48.3,171,48.3L171,48.3z M171,68c-2.4-1.6-5.1-3-7.6-4.5c-3.9-2.4-5.4-5.2-3.5-9.8c0.5-1.3,1.9-2.5,3.5-3v-2.5
		c-4.4,0-7.8,0.9-11,3.5c-1.6,1.3-2.9,3-3.6,4.8V67c2.3,5,7.6,6.5,11.9,9.5c4.4,3,9.2,5.7,6.4,11.5c-1.2,2.4-3.1,3.5-5.4,3.9v2.2
		c3.1-0.2,6.4-0.8,9.3-2.1V68L171,68z M148.8,136.6c0.1,0,0.1,0,0.2,0c1.3,0,2.6-0.4,3.9-1c1.2-0.7,2.2-1.6,2.9-2.9
		c0.7-1.3,1-2.5,1-3.9c0-1.4-0.3-2.7-1-3.9c-0.7-1.3-1.6-2.2-2.9-2.9c-1.3-0.7-2.5-1-3.8-1c-0.1,0-0.2,0-0.2,0v1.3
		c0.1,0,0.1,0,0.2,0c1.1,0,2.1,0.3,3.2,0.8c1,0.6,1.9,1.4,2.5,2.4c0.5,1.1,0.9,2.1,0.9,3.3c0,1.2-0.3,2.2-0.9,3.2
		c-0.6,1-1.4,1.9-2.4,2.4c-1,0.6-2.1,0.9-3.2,0.9c-0.1,0-0.2,0-0.2,0V136.6L148.8,136.6z M148.8,91.2v-8.6c1.2-1.5,3.1-2.4,5.1-2.4
		c3.7,0,6.7,3,6.7,6.7c0,3.7-3,6.6-6.7,6.6C151.8,93.5,150,92.6,148.8,91.2L148.8,91.2z M146.9,128.4h1.6c0.1,0,0.1,0,0.2,0v1.4
		c-0.3-0.2-0.6-0.2-1.1-0.2h-0.8v3.6h-1.4v-8.4h2.9c0.1,0,0.2,0,0.3,0.1v1.1c-0.1,0-0.2,0-0.3,0h-1.5V128.4L146.9,128.4z
		 M148.8,56.5V67c-0.2-0.3-0.3-0.7-0.4-1C147.2,62.9,147.5,59.5,148.8,56.5L148.8,56.5z M148.8,82.6v8.6c-1-1.2-1.6-2.7-1.6-4.3
		C147.2,85.2,147.8,83.8,148.8,82.6L148.8,82.6z M148.8,120.9c-1.3,0.1-2.5,0.4-3.6,1c-1.3,0.7-2.2,1.6-3,2.9c-0.7,1.2-1,2.5-1,3.9
		c0,1.4,0.3,2.6,1,3.9c0.7,1.3,1.6,2.2,2.9,2.9c1.2,0.7,2.4,1,3.7,1v-1.3c-1.1-0.1-2.1-0.3-3-0.9c-1-0.5-1.9-1.4-2.5-2.4
		c-0.5-1-0.8-2.1-0.8-3.2c0-1.2,0.3-2.2,0.9-3.3c0.5-1,1.4-1.8,2.4-2.4c1-0.5,2-0.8,3-0.8V120.9L148.8,120.9z M115.3,165.3V160
		c1.6-1.5,2.8-3.6,3.1-5.8h3.8C121,159.1,118.9,163.1,115.3,165.3L115.3,165.3z M115.3,135.2v-13.3c3.7,0,6.7,3,6.7,6.7
		C122,132.2,119,135.2,115.3,135.2L115.3,135.2z M115.3,61.4v-13c3,0.7,5.3,3.3,5.3,6.5C120.5,58.2,118.3,60.8,115.3,61.4
		L115.3,61.4z M132.2,152.2c4.2,0,7.5,3.4,7.5,7.6c0,4.2-3.3,7.6-7.5,7.6c-4.2,0-7.6-3.4-7.6-7.6C124.6,155.6,128,152.2,132.2,152.2
		L132.2,152.2z M124.4,27.7h14.5v66h-14.5V27.7L124.4,27.7z M115.3,48.4v13c-0.4,0.1-0.9,0.2-1.4,0.2c-3.7,0-6.7-3-6.7-6.6
		c0-3.7,3-6.7,6.7-6.7C114.3,48.3,114.8,48.3,115.3,48.4L115.3,48.4z M115.3,121.9v13.3c-3.7,0-6.6-3-6.6-6.6
		C108.6,124.8,111.6,121.9,115.3,121.9L115.3,121.9z M115.3,160c-1.3,1.2-3,2-4.8,2H110c-4.4,0-8-4.4-8-8.8v-21.9
		c0-3.7,2.5-6.7,5.9-7.7v-2.9c-1,0-2.3,0-2.4,0c-12,0-18.9,10.4-18.9,23.3c0,12.8,6.9,23.3,18.9,23.3c0.2,0,2.2,0,2.5,0
		c2.9-0.1,5.4-0.8,7.3-2V160L115.3,160z M34.2,115.7v-3.2c6-2.3,6-8.2,6-11.5v-6.7v-46h14.5V99c0,0.7,0,1.3-0.1,1.9
		C53.6,109.9,47.5,115.6,34.2,115.7L34.2,115.7z M34.2,93.4c0.7,0,1.4-0.1,1.7-0.1c0.1,0,0.2-0.1,0.3-0.1v-2.1
		c-0.7-0.1-1.3-0.2-2-0.4V93.4L34.2,93.4z M34.2,51.7c0.7-0.2,1.3-0.3,2-0.4v-2.5c-0.1,0-0.2,0-0.3,0c-0.3-0.1-1-0.1-1.7-0.1V51.7
		L34.2,51.7z M79.1,131.7v34.9H64.7v-30.2v-6.7c0-3.6-2.5-4.4-6.1-4.1V123c8.1-4.3,19.4-2.7,20.5,6.8
		C79.1,130.5,79.1,131.1,79.1,131.7L79.1,131.7z M40,121.3h14.5v45.3H40V121.3L40,121.3z M72.2,25.4c4.4,0,8.1,3.6,8.1,8.1
		c0,4.4-3.6,8.1-8.1,8.1c-4.4,0-8.1-3.6-8.1-8.1C64.2,29,67.8,25.4,72.2,25.4L72.2,25.4z M65,48.3h14.5v45.3H65V48.3L65,48.3z
		 M89.9,48.3h14.4v45.3H89.9V48.3L89.9,48.3z M34.2,48.7v3c-3,1-5.2,3.8-5.2,7.2v24.7c0,3.3,2.2,6.2,5.2,7.2v2.6
		c-0.7,0.1-1.4,0.1-1.7,0.1c-11,0-18.5-10-18.5-22.4c0-12.4,7.5-22.4,18.5-22.4C32.8,48.7,33.6,48.7,34.2,48.7L34.2,48.7z
		 M34.2,112.5v3.2c-0.6,0-1.2,0-1.9,0l-0.1-2.6C33,112.9,33.7,112.8,34.2,112.5L34.2,112.5z M22.7,98.4c4.4,0,8.1,3.6,8.1,8.1
		c0,4.4-3.6,8-8.1,8s-8.1-3.6-8.1-8C14.6,102,18.3,98.4,22.7,98.4L22.7,98.4z M15.4,121.3h14.5v45.3H15.4V121.3L15.4,121.3z"/>
</g>
</svg>
