<?xml version="1.0" encoding="utf-8"?>
<!-- Generator: Adobe Illustrator 22.0.0, SVG Export Plug-In . SVG Version: 6.00 Build 0)  -->
<svg version="1.1" id="Layer_1" xmlns="http://www.w3.org/2000/svg" xmlns:xlink="http://www.w3.org/1999/xlink" x="0px" y="0px"
	 viewBox="0 0 512 512" style="enable-background:new 0 0 512 512;" xml:space="preserve">
<style type="text/css">
	.st0{fill:#F02F73;}
	.st1{fill:#FFB400;}
	.st2{fill:#EC0456;}
	.st3{fill:#F02F72;}
	.st4{fill:#F4568E;}
	.st5{fill:#D3004B;}
	.st6{fill:#FFC539;}
</style>
<path class="st0" d="M335.5,61.8c-0.8,0-1.5-0.1-2.3-0.3C312.8,56,285.4,53,256,53s-56.8,3-77.2,8.5c-4.7,1.3-9.6-1.5-10.8-6.2
	c-1.3-4.7,1.5-9.6,6.2-10.8c21.8-5.9,50.9-9.1,81.7-9.1s59.9,3.2,81.7,9.1c4.7,1.3,7.5,6.1,6.2,10.8
	C342.9,59.2,339.3,61.8,335.5,61.8z"/>
<g>
	<path class="st1" d="M176.6,44.2L176.6,44.2c-4.9,0-8.8,4-8.8,8.8v44.1h17.7V53C185.4,48.1,181.4,44.2,176.6,44.2z"/>
	<path class="st1" d="M335.4,44.2L335.4,44.2c-4.9,0-8.8,4-8.8,8.8v44.1h17.7V53C344.3,48.1,340.3,44.2,335.4,44.2z"/>
</g>
<path class="st2" d="M459,476.6H53c-19.5,0-35.3-15.8-35.3-35.3V273.7h476.7v167.6C494.3,460.8,478.5,476.6,459,476.6z"/>
<g>
	<path class="st3" d="M247.2,256H35.3v185.3c0,9.8,7.9,17.7,17.7,17.7h185.4c4.9,0,8.8-4,8.8-8.8V256z"/>
	<path class="st3" d="M264.8,256v194.1c0,4.9,4,8.8,8.8,8.8H459c9.8,0,17.7-7.9,17.7-17.7V256L264.8,256L264.8,256z"/>
</g>
<path class="st4" d="M459,300.2H53c-29.3,0-53-23.7-53-53V105.9c0-9.8,7.9-17.7,17.7-17.7h476.7c9.8,0,17.7,7.9,17.7,17.7v141.3
	C512,276.5,488.3,300.2,459,300.2z"/>
<path class="st5" d="M459,317.8c12.9,0,24.9-3.5,35.3-9.6v-21.7c-9.4,8.4-21.7,13.6-35.3,13.6H53c-13.6,0-25.9-5.2-35.3-13.6v21.7
	c10.4,6,22.4,9.6,35.3,9.6L459,317.8L459,317.8L459,317.8z"/>
<path class="st0" d="M273.7,229.6h-35.3c-4.9,0-8.8,4-8.8,8.8v61.8c0,4.9,4,8.8,8.8,8.8h35.3c4.9,0,8.8-4,8.8-8.8v-61.8
	C282.5,233.5,278.5,229.6,273.7,229.6z"/>
<path class="st1" d="M282.5,335.5h-53c-4.9,0-8.8-4-8.8-8.8v-44.1c0-4.9,4-8.8,8.8-8.8h53c4.9,0,8.8,4,8.8,8.8v44.1
	C291.3,331.5,287.4,335.5,282.5,335.5z"/>
<path class="st6" d="M273.7,335.5h-35.3v-35.3c0-4.9,4-8.8,8.8-8.8h17.7c4.9,0,8.8,4,8.8,8.8L273.7,335.5L273.7,335.5z"/>
<circle class="st0" cx="256" cy="185.4" r="17.7"/>
</svg>
