<?xml version="1.0" encoding="utf-8"?>
<!-- Generator: Adobe Illustrator 22.0.0, SVG Export Plug-In . SVG Version: 6.00 Build 0)  -->
<svg version="1.1" id="Capa_1" xmlns="http://www.w3.org/2000/svg" xmlns:xlink="http://www.w3.org/1999/xlink" x="0px" y="0px"
	 viewBox="0 0 512 512" style="enable-background:new 0 0 512 512;" xml:space="preserve">
<style type="text/css">
	.st0{fill:#F02F72;}
	.st1{fill:#0089E1;}
	.st2{fill:#FFFFFF;}
</style>
<g>
	<path class="st0" d="M113.3,168.7c23.9,0,46.7,10.2,62.6,28.1c5.4,6.1,14.8,6.6,20.8,1.2c6.1-5.4,6.6-14.8,1.2-20.8
		c-21.5-24.1-52.3-37.9-84.6-37.9C50.8,139.2,0,190,0,252.5C0,310,43,357.6,98.6,364.9v48.9h-32c-8.1,0-14.8,6.6-14.8,14.8
		s6.6,14.8,14.8,14.8h32v30c0,8.1,6.6,14.8,14.8,14.8s14.8-6.6,14.8-14.8v-30h32c8.1,0,14.8-6.6,14.8-14.8s-6.6-14.8-14.8-14.8h-32
		v-48.9c26.8-3.5,51.7-16.6,69.8-37c5.4-6.1,4.9-15.4-1.2-20.8c-6.1-5.4-15.4-4.9-20.8,1.2c-15.9,17.8-38.7,28.1-62.6,28.1
		c-46.2,0-83.8-37.6-83.8-83.8S67.1,168.7,113.3,168.7z"/>
	<path class="st1" d="M413.2,139.6V71.1l22,22c2.9,2.9,6.7,4.3,10.4,4.3c3.8,0,7.6-1.4,10.4-4.3c5.8-5.8,5.8-15.1,0-20.9l-41.5-41.5
		c-4.3-4.3-10-6.7-16.1-6.7c0,0,0,0,0,0c-6.1,0-11.8,2.4-16.1,6.7l-41.5,41.5c-5.8,5.8-5.8,15.1,0,20.9c5.8,5.8,15.1,5.8,20.9,0
		l22-22v68.5c-27.7,3.6-53.2,17.3-71.5,38.8c-5.3,6.2-4.6,15.5,1.6,20.8c6.2,5.3,15.5,4.6,20.8-1.6c16-18.7,39.3-29.4,63.9-29.4
		c46.3,0,84,37.7,84,84c0,22.4-8.7,43.5-24.6,59.4c-15.9,15.9-37,24.6-59.4,24.6c-24.6,0-47.9-10.7-63.9-29.4
		c-5.3-6.2-14.6-6.9-20.8-1.6c-6.2,5.3-6.9,14.6-1.6,20.8c21.6,25.3,53.1,39.8,86.3,39.8c0,0,0,0,0,0c30.3,0,58.8-11.8,80.3-33.2
		c21.4-21.4,33.2-49.9,33.2-80.3C512,194.6,468.9,146.9,413.2,139.6z"/>
	<path class="st2" d="M220.7,235.7H295c8.1,0,14.8-6.6,14.8-14.8c0-8.1-6.6-14.8-14.8-14.8h-74.3c-8.1,0-14.8,6.6-14.8,14.8
		C205.9,229.1,212.5,235.7,220.7,235.7z"/>
	<path class="st2" d="M295,264.7h-74.3c-8.1,0-14.8,6.6-14.8,14.8c0,8.1,6.6,14.8,14.8,14.8H295c8.1,0,14.8-6.6,14.8-14.8
		C309.7,271.3,303.1,264.7,295,264.7z"/>
</g>
</svg>
